<svg xmlns="http://www.w3.org/2000/svg" xmlns:xlink="http://www.w3.org/1999/xlink" viewBox="-237.1 377.9 133.1 38.2"><path d="M-157.1 389.6c.2-.1.3-.3.4-.6v-.9c-1.2 0-1.7.3-1.7 1 0 .2.1.4.2.6s.3.2.5.2l.6-.3z"/><use xlink:href="#B"/><use xlink:href="#C"/><use xlink:href="#C" x="-22.4"/><use xlink:href="#B" x="-11"/><path d="M-190 397l-.7 2.5-1.1 3.5h3.6l-1.1-3.5c-.2-.4-.4-1.2-.7-2.5zm-.7-8c.4-.4.7-1.1.7-1.9s-.2-1.3-.6-1.8c-.4-.4-1-.6-1.8-.6-.3 0-.6 0-.8.1v4.9h.7c.7 0 1.4-.3 1.8-.7zm39.5-2.3c-.2-.2-.4-.3-.7-.3-.4 0-.7.2-.9.5s-.3.7-.3 1.2.1.8.3 1.1.5.5.9.5c.3 0 .6-.1.8-.4.2-.2.3-.5.3-.9v-1.1c-.1-.2-.2-.4-.4-.6zm32.9 14.4c-.4-.6-.9-.9-1.7-.9-.7 0-1.3.3-1.7.9a2.52 2.52 0 0 0-.6 1.7h4.4c0-.7-.1-1.3-.4-1.7zm-18.7-.8c-.9 0-1.5.4-2 1.1-.4.6-.6 1.4-.6 2.3a4.38 4.38 0 0 0 .6 2.3c.5.8 1.1 1.1 1.9 1.1s1.5-.4 1.9-1.2c.4-.6.6-1.4.6-2.3a4.38 4.38 0 0 0-.6-2.3c-.3-.6-1-1-1.8-1zm33-18.6a3.8 3.8 0 0 0-3.8-3.8h-125.5a3.8 3.8 0 0 0-3.8 3.8v30.5a3.8 3.8 0 0 0 3.8 3.8h125.5a3.8 3.8 0 0 0 3.8-3.8v-30.5zm-16.4 4.7c.4-.5 1-.8 1.6-.8.7 0 1.2.3 1.5.8.3.4.4.9.4 1.5v.5h-3.1c0 .5.2.8.5 1.1a1.69 1.69 0 0 0 1 .3c.5 0 .9-.1 1.3-.2l.2.7c-.4.2-1 .3-1.6.3-.7 0-1.3-.2-1.7-.6s-.6-1-.6-1.7c-.1-.9.1-1.5.5-1.9zm-17.9-.7v.7c.1-.2.3-.4.5-.6a1.69 1.69 0 0 1 1-.3c.4 0 .8.1 1.1.4.4.3.5.9.5 1.6v2.8h-1v-2.7c0-.8-.3-1.2-1-1.2-.3 0-.6.1-.8.3s-.3.5-.3.8v2.8h-1v-4.7h1zm-6.4.6c.4-.5 1-.7 1.7-.7a2.19 2.19 0 0 1 1.7.7c.4.4.6 1 .6 1.7s-.2 1.3-.6 1.8-1 .7-1.7.7a2.19 2.19 0 0 1-1.7-.7 2.52 2.52 0 0 1-.6-1.7c-.1-.7.1-1.3.6-1.8zm-23.3-2.7h1v6.9h-1v-6.9zm-13 2.1l.5 2.2.3 1.5.4-1.5.7-2.2h.9l.6 2.2c.2.5.3 1.1.4 1.6l.3-1.6.6-2.2h1l-1.5 4.7h-1l-.6-2c-.2-.5-.3-1-.4-1.5-.1.5-.2 1-.4 1.5l-.6 2h-1l-1.4-4.7h1.2zm-13.3-1.7c.6-.1 1.2-.1 1.8-.1 1.1 0 2 .2 2.6.7.7.6 1 1.4 1 2.4 0 1.2-.4 2.1-1.1 2.7-.7.5-1.6.8-2.8.8-.6 0-1.1 0-1.5-.1V384zm-19.2 1.2c.9-1.1 2.5-1.9 3.8-1.9.2 1.5-.4 3-1.3 4.1s-2.4 1.9-3.8 1.8c-.2-1.6.5-3.1 1.3-4zm7.3 20.4c-1 1.6-2.1 3.1-3.9 3.1-1.7 0-2.3-1-4.2-1-2 0-2.6 1-4.2 1-1.7.1-2.9-1.7-4-3.2-2.2-3.2-3.9-8.9-1.6-12.9 1.1-1.9 3.1-3.2 5.2-3.2 1.7 0 3.2 1.1 4.2 1.1s2.9-1.4 4.9-1.2c.8 0 3.2.3 4.7 2.5-.1.1-2.8 1.6-2.8 4.9 0 3.9 3.4 5.1 3.4 5.2s-.5 1.9-1.7 3.7zm19.6 2.9l-1.2-3.9h-4.3l-1.2 3.9h-2.2l4.3-13.3h2.6l4.3 13.3h-2.3zm2.9-18.7c-.4.5-1 .7-1.7.7a2.19 2.19 0 0 1-1.7-.7 2.52 2.52 0 0 1-.6-1.7c0-.7.2-1.3.6-1.8s1-.7 1.7-.7a2.19 2.19 0 0 1 1.7.7c.4.4.6 1 .6 1.7 0 .8-.2 1.4-.6 1.8zm9 17.7c-.8.8-1.8 1.3-2.9 1.3-1.3 0-2.2-.5-2.7-1.4v5.1h-2.1v-10.3c0-1 0-2.1-.1-3.2h1.9l.1 1.5c.7-1.1 1.8-1.7 3.2-1.7 1.1 0 2.1.4 2.8 1.3.8.9 1.1 2.1 1.1 3.5.1 1.6-.4 2.9-1.3 3.9zm2.1-20.7c-.2.2-.3.5-.3.8v2.8h-1v-4.7h.9v.7c.1-.2.3-.4.5-.6.3-.2.6-.3.9-.3.4 0 .8.1 1.1.4.4.3.5.9.5 1.6v2.8h-1v-2.7c0-.8-.3-1.2-1-1.2-.1.1-.4.2-.6.4zm9 20.7c-.8.8-1.8 1.3-2.9 1.3-1.3 0-2.2-.5-2.7-1.4v5.1h-2.1v-10.3c0-1 0-2.1-.1-3.2h1.9l.1 1.5c.7-1.1 1.8-1.7 3.2-1.7 1.1 0 2.1.4 2.8 1.3.8.9 1.1 2.1 1.1 3.5 0 1.6-.4 2.9-1.3 3.9zm2.2-17.7c-.4.5-1 .7-1.7.7a2.19 2.19 0 0 1-1.7-.7 2.52 2.52 0 0 1-.6-1.7c0-.7.2-1.3.6-1.8s1-.7 1.7-.7a2.19 2.19 0 0 1 1.7.7c.4.4.6 1 .6 1.7.1.8-.1 1.4-.6 1.8zm1.9-.6c0-.6.2-1 .7-1.3a3.14 3.14 0 0 1 2-.4v-.1c0-.6-.3-.9-1-.9-.5 0-.9.1-1.2.3l-.2-.7c.4-.3 1-.4 1.6-.4 1.2 0 1.9.7 1.9 2v1.7c0 .5 0 .8.1 1.1h-.9l-.1-.5c-.3.4-.8.6-1.4.6-.4 0-.8-.1-1.1-.4s-.4-.7-.4-1zm8.4 18.3c-.9.8-2.1 1.2-3.6 1.2-1.4 0-2.6-.3-3.4-.8l.5-1.8c.9.6 2 .9 3.1.9.8 0 1.4-.2 1.9-.5.4-.4.7-.8.7-1.5 0-.5-.2-1-.6-1.4s-1-.7-1.8-1c-2.3-.9-3.5-2.1-3.5-3.8 0-1.1.4-2 1.2-2.7s1.9-1 3.3-1c1.2 0 2.2.2 3 .6l-.5 1.7a5.42 5.42 0 0 0-2.5-.6c-.8 0-1.3.2-1.8.6-.4.3-.5.7-.5 1.2s.2 1 .6 1.3 1 .7 1.9 1c1.1.5 2 1 2.5 1.6s.8 1.4.8 2.3c-.2 1.1-.6 2-1.3 2.7zm.5-17.1v-.8c-.3.6-.8.9-1.5.9-.6 0-1-.2-1.4-.7-.4-.4-.6-1-.6-1.7 0-.8.2-1.4.6-1.9.4-.4.9-.7 1.5-.7s1.1.2 1.3.6v-2.7h1v6.9h-.9zm7.7 10.1h-2.4v4.7c0 1.2.4 1.8 1.2 1.8.4 0 .7 0 .9-.1l.1 1.6c-.4.2-1 .2-1.7.2-.8 0-1.5-.3-2-.8s-.7-1.4-.7-2.6v-4.8h-1.4v-1.6h1.4v-1.8l2.1-.6v2.4h2.3v1.6zm9.3 6.8c-.9 1-2.1 1.5-3.5 1.5s-2.5-.5-3.4-1.4-1.3-2.1-1.3-3.5c0-1.5.4-2.7 1.3-3.7.9-.9 2-1.4 3.5-1.4 1.4 0 2.5.5 3.4 1.4.8.9 1.2 2.1 1.2 3.5.1 1.4-.3 2.6-1.2 3.6zm2.7-21.6h.7v-.9l1-.3v1.2h1.2v.8h-1.2v2.3c0 .6.2.9.6.9h.5v.8c-.2.1-.5.1-.8.1-.4 0-.7-.1-1-.4-.2-.3-.3-.7-.3-1.3v-2.4h-.7v-.8zm5.5 15.1c-.2 0-.4-.1-.7-.1-.8 0-1.3.3-1.7.8s-.5 1.1-.5 1.9v5h-2.1v-6.6c0-1.1 0-2.1-.1-3h1.9l.1 1.8h.1c.2-.6.6-1.1 1.1-1.5.5-.3 1-.5 1.5-.5h.5v2.2zm-.1-13.6v3.2h-1v-6.9h1v2.8c.3-.5.8-.8 1.4-.8.4 0 .8.1 1.1.4.4.4.5.9.5 1.6v2.8h-1v-2.7c0-.8-.3-1.3-.9-1.3-.6.2-.9.4-1.1.9zm9.6 17h-6.4c0 .9.3 1.7.9 2.2.5.4 1.2.7 2.1.7s1.8-.2 2.6-.5l.3 1.5c-.9.4-2 .6-3.2.6-1.5 0-2.7-.4-3.5-1.3s-1.3-2-1.3-3.5c0-1.4.4-2.7 1.2-3.6.8-1 1.9-1.5 3.4-1.5 1.4 0 2.4.5 3.1 1.5.6.8.8 1.8.8 3 .1.3 0 .7 0 .9zm-27.2-14.4c.4 0 .7-.2.9-.6.2-.3.3-.7.3-1.1s-.1-.8-.3-1.1c-.2-.4-.5-.6-.9-.6s-.7.2-1 .6c-.2.3-.3.7-.3 1.1s.1.8.3 1.1c.3.4.6.6 1 .6zm25.1-3c-.2-.3-.5-.4-.8-.4s-.6.1-.8.4c-.2.2-.3.5-.3.8h2.2l-.3-.8z"/><defs ><path id="B" d="M-167 400.4c-.5 0-1 .2-1.4.5s-.7.8-.8 1.4c-.1.3-.1.5-.1.6v1.6c0 .7.2 1.3.6 1.8s1 .7 1.7.7a2.32 2.32 0 0 0 1.9-.9c.4-.6.7-1.4.7-2.4 0-.9-.2-1.7-.6-2.3-.6-.7-1.2-1-2-1z"/><path id="C" d="M-163 386.4c-.4 0-.7.2-1 .6-.2.3-.3.7-.3 1.1s.1.8.3 1.1a1 1 0 0 0 1 .6c.4 0 .7-.2.9-.6.2-.3.3-.7.3-1.1s-.1-.8-.3-1.1c-.2-.4-.5-.6-.9-.6z"/></defs></svg>