<svg xmlns="http://www.w3.org/2000/svg" viewBox="0 0 135 40"><defs><linearGradient id="A" x1="21.8" y1="8.71" x2="5.02" y2="25.49" gradientUnits="userSpaceOnUse"><stop offset="0" stop-color="#00a0ff"/><stop offset=".01" stop-color="#00a1ff"/><stop offset=".26" stop-color="#00beff"/><stop offset=".51" stop-color="#00d2ff"/><stop offset=".76" stop-color="#00dfff"/><stop offset="1" stop-color="#00e3ff"/></linearGradient><linearGradient id="B" x1="33.83" y1="19.99" x2="9.64" y2="19.99" gradientUnits="userSpaceOnUse"><stop offset="0" stop-color="#ffe000"/><stop offset=".41" stop-color="#ffbd00"/><stop offset=".78" stop-color="orange"/><stop offset="1" stop-color="#ff9c00"/></linearGradient><linearGradient id="C" x1="24.82" y1="22.29" x2="2.06" y2="45.04" gradientUnits="userSpaceOnUse"><stop offset="0" stop-color="#ff3a44"/><stop offset="1" stop-color="#c31162"/></linearGradient><linearGradient id="D" x1="7.3" y1=".18" x2="17.46" y2="10.34" gradientUnits="userSpaceOnUse"><stop offset="0" stop-color="#32a071"/><stop offset=".07" stop-color="#2da771"/><stop offset=".48" stop-color="#15cf74"/><stop offset=".8" stop-color="#06e775"/><stop offset="1" stop-color="#00f076"/></linearGradient></defs><rect width="135" height="40" rx="5"/><path d="M130 .8a4.2 4.2 0 0 1 4.2 4.2v30a4.2 4.2 0 0 1-4.2 4.2H5A4.2 4.2 0 0 1 .8 35V5A4.2 4.2 0 0 1 5 .8h125m0-.8H5a5 5 0 0 0-5 5v30a5 5 0 0 0 5 5h125a5 5 0 0 0 5-5V5a5 5 0 0 0-5-5z" fill="#a6a6a6"/><g fill="#fff"><path d="M47.42 10.24a2.75 2.75 0 0 1-.75 2 2.88 2.88 0 0 1-2.2.89 3.15 3.15 0 0 1-2.21-5.37 3 3 0 0 1 2.21-.9 3.08 3.08 0 0 1 1.23.25 2.61 2.61 0 0 1 .94.67l-.53.53a2 2 0 0 0-1.64-.71 2.32 2.32 0 0 0-2.33 2.31v.1a2.36 2.36 0 0 0 4 1.73 1.85 1.85 0 0 0 .5-1.22h-2.17V9.8h2.9a2.28 2.28 0 0 1 0 .45zM52 7.74h-2.7v1.9h2.46v.72H49.3v1.9H52V13h-3.5V7H52zM55.28 13h-.77V7.74h-1.68V7H57v.74h-1.72zm4.66 0V7h.77v6zm4.2 0h-.77V7.74H61.7V7h4.12v.74h-1.67zm9.48-.78a3.12 3.12 0 0 1-4.4 0 3.24 3.24 0 0 1 0-4.45 3.1 3.1 0 0 1 4.38 0 3.24 3.24 0 0 1 .02 4.45zm-3.83-.5a2.31 2.31 0 0 0 3.26 0 2.55 2.55 0 0 0 0-3.44 2.31 2.31 0 0 0-3.26 0 2.55 2.55 0 0 0 0 3.44zM75.6 13V7h.94l2.92 4.67V7h.77v6h-.8l-3-4.9V13z" stroke="#fff" stroke-miterlimit="10" stroke-width=".2"/><path d="M68.14 21.75A4.25 4.25 0 1 0 72.41 26a4.19 4.19 0 0 0-4.13-4.25zm0 6.83a2.58 2.58 0 1 1 2.39-2.75.91.91 0 0 1 0 .17 2.46 2.46 0 0 1-2.34 2.58zm-9.3-6.83A4.25 4.25 0 1 0 63.09 26 4.19 4.19 0 0 0 59 21.75h-.12zm0 6.83a2.58 2.58 0 1 1 2.37-2.77 1.21 1.21 0 0 1 0 .19 2.46 2.46 0 0 1-2.34 2.58zm-11.1-5.52v1.8h4.32a3.77 3.77 0 0 1-1 2.27 4.41 4.41 0 0 1-3.33 1.32 4.8 4.8 0 1 1 0-9.6A4.58 4.58 0 0 1 51 20.14l1.27-1.27A6.32 6.32 0 0 0 47.74 17a6.61 6.61 0 0 0-.51 13.21h.5a5.84 5.84 0 0 0 6.17-6.07 6.09 6.09 0 0 0-.1-1.13zM93 24.46a3.92 3.92 0 0 0-7.65 1.28 2.26 2.26 0 0 0 0 .26 4.16 4.16 0 0 0 4.07 4.25h.15a4.23 4.23 0 0 0 3.54-1.88l-1.45-1a2.44 2.44 0 0 1-2.09 1.18 2.17 2.17 0 0 1-2.06-1.29l5.7-2.35zm-5.8 1.42a2.34 2.34 0 0 1 2.17-2.48 1.65 1.65 0 0 1 1.58.9zM82.63 30h1.87V17.5h-1.87zm-3.06-7.3h-.07a3 3 0 0 0-2.24-1 4.26 4.26 0 0 0 0 8.51 2.9 2.9 0 0 0 2.24-1h.06v.6c0 1.63-.87 2.5-2.27 2.5a2.35 2.35 0 0 1-2.14-1.51l-1.63.68A4 4 0 0 0 77.29 34c2.2 0 4-1.3 4-4.43V22h-1.72zm-2.14 5.88a2.59 2.59 0 0 1 0-5.16 2.4 2.4 0 0 1 2.27 2.52V26a2.38 2.38 0 0 1-2.17 2.57h-.1zM101.8 17.5h-4.47V30h1.87v-4.74h2.6a3.89 3.89 0 1 0 .56-7.76 5.23 5.23 0 0 0-.56 0zm0 6h-2.6v-4.26h2.65a2.15 2.15 0 1 1 0 4.29zm11.53-1.8a3.51 3.51 0 0 0-3.33 1.91l1.66.7a1.75 1.75 0 0 1 1.7-.92 1.8 1.8 0 0 1 2 1.58v.16a4.14 4.14 0 0 0-2-.48c-1.8 0-3.6 1-3.6 2.8a2.88 2.88 0 0 0 3 2.75h.08a2.62 2.62 0 0 0 2.4-1.2h.06v1h1.8v-4.8c0-2.2-1.66-3.46-3.8-3.46zm-.23 6.85c-.6 0-1.46-.3-1.46-1.06 0-1 1.06-1.33 2-1.33a3.38 3.38 0 0 1 1.7.42 2.26 2.26 0 0 1-2.19 2zM123.74 22l-2.14 5.42h-.06L119.32 22h-2l3.33 7.58-1.9 4.2h2L125.82 22zm-16.8 8h1.87V17.5h-1.87z"/></g><path d="M10.44 7.54a2 2 0 0 0-.44 1.4v22.12a2 2 0 0 0 .46 1.4l.07.07 12.4-12.38v-.3L10.5 7.45z" fill="url(#A)"/><path d="M27 24.28l-4.1-4.13v-.3L27 15.7h.1l4.9 2.8c1.4.8 1.4 2.1 0 2.9l-4.9 2.78z" fill="url(#B)"/><path d="M27.12,24.22,22.9,20,10.44,32.46a1.63,1.63,0,0,0,2.08.06l14.6-8.3" fill="url(#C)"/><path d="M27.12,15.78l-14.6-8.3a1.63,1.63,0,0,0-2.08.06L22.9,20Z" fill="url(#D)"/><path d="M27,24.13,12.5,32.38a1.68,1.68,0,0,1-2,0l-.07.07.07.07a1.65,1.65,0,0,0,2,0l14.6-8.3Z" opacity=".2"/><path d="M10.44 32.32a2 2 0 0 1-.46-1.4v.15a2 2 0 0 0 .46 1.4l.07-.07zM32 21.3l-5 2.83.1.1 4.9-2.78A1.75 1.75 0 0 0 33 20a1.86 1.86 0 0 1-1 1.3z" opacity=".12"/><path d="M12.5 7.62L32 18.7a1.86 1.86 0 0 1 1 1.3 1.75 1.75 0 0 0-1-1.44L12.5 7.48C11.1 6.68 10 7.35 10 9v.1c0-1.6 1.1-2.27 2.5-1.48z" fill="#fff" opacity=".25"/></svg>